<mxfile host="Electron" modified="2024-05-18T16:58:56.412Z" agent="Mozilla/5.0 (Windows NT 10.0; Win64; x64) AppleWebKit/537.36 (KHTML, like Gecko) draw.io/24.4.0 Chrome/120.0.6099.109 Electron/28.1.0 Safari/537.36" etag="QFtSeYakks3e6TPeEn1m" version="24.4.0" type="device">
  <diagram id="C5RBs43oDa-KdzZeNtuy" name="Page-1">
    <mxGraphModel dx="2390" dy="1393" grid="1" gridSize="10" guides="1" tooltips="1" connect="1" arrows="1" fold="1" page="1" pageScale="1" pageWidth="827" pageHeight="1169" math="0" shadow="0">
      <root>
        <mxCell id="WIyWlLk6GJQsqaUBKTNV-0" />
        <mxCell id="WIyWlLk6GJQsqaUBKTNV-1" parent="WIyWlLk6GJQsqaUBKTNV-0" />
        <mxCell id="clgBbZ1NQHeZ-v6ARwOJ-5" style="edgeStyle=orthogonalEdgeStyle;rounded=0;orthogonalLoop=1;jettySize=auto;html=1;exitX=0.5;exitY=1;exitDx=0;exitDy=0;exitPerimeter=0;entryX=0.5;entryY=0;entryDx=0;entryDy=0;" edge="1" parent="WIyWlLk6GJQsqaUBKTNV-1" source="clgBbZ1NQHeZ-v6ARwOJ-0" target="clgBbZ1NQHeZ-v6ARwOJ-1">
          <mxGeometry relative="1" as="geometry" />
        </mxCell>
        <mxCell id="clgBbZ1NQHeZ-v6ARwOJ-0" value="Начало" style="strokeWidth=2;html=1;shape=mxgraph.flowchart.start_1;whiteSpace=wrap;" vertex="1" parent="WIyWlLk6GJQsqaUBKTNV-1">
          <mxGeometry x="355" y="10" width="80" height="40" as="geometry" />
        </mxCell>
        <mxCell id="clgBbZ1NQHeZ-v6ARwOJ-11" style="edgeStyle=orthogonalEdgeStyle;rounded=0;orthogonalLoop=1;jettySize=auto;html=1;exitX=0.5;exitY=1;exitDx=0;exitDy=0;entryX=0.5;entryY=0;entryDx=0;entryDy=0;" edge="1" parent="WIyWlLk6GJQsqaUBKTNV-1" source="clgBbZ1NQHeZ-v6ARwOJ-1" target="clgBbZ1NQHeZ-v6ARwOJ-10">
          <mxGeometry relative="1" as="geometry" />
        </mxCell>
        <mxCell id="clgBbZ1NQHeZ-v6ARwOJ-1" value="Прибывает&lt;div&gt;студент&lt;/div&gt;" style="shape=parallelogram;perimeter=parallelogramPerimeter;whiteSpace=wrap;html=1;fixedSize=1;" vertex="1" parent="WIyWlLk6GJQsqaUBKTNV-1">
          <mxGeometry x="345" y="80" width="100" height="40" as="geometry" />
        </mxCell>
        <mxCell id="clgBbZ1NQHeZ-v6ARwOJ-24" style="edgeStyle=orthogonalEdgeStyle;rounded=0;orthogonalLoop=1;jettySize=auto;html=1;exitX=1;exitY=0.5;exitDx=0;exitDy=0;entryX=0.5;entryY=0;entryDx=0;entryDy=0;" edge="1" parent="WIyWlLk6GJQsqaUBKTNV-1" source="clgBbZ1NQHeZ-v6ARwOJ-3" target="clgBbZ1NQHeZ-v6ARwOJ-23">
          <mxGeometry relative="1" as="geometry" />
        </mxCell>
        <mxCell id="clgBbZ1NQHeZ-v6ARwOJ-3" value="Необходимое утройство свободно" style="rhombus;whiteSpace=wrap;html=1;" vertex="1" parent="WIyWlLk6GJQsqaUBKTNV-1">
          <mxGeometry x="340" y="250" width="110" height="80" as="geometry" />
        </mxCell>
        <mxCell id="clgBbZ1NQHeZ-v6ARwOJ-14" style="edgeStyle=orthogonalEdgeStyle;rounded=0;orthogonalLoop=1;jettySize=auto;html=1;exitX=0;exitY=0.5;exitDx=0;exitDy=0;exitPerimeter=0;entryX=0.5;entryY=0;entryDx=0;entryDy=0;" edge="1" parent="WIyWlLk6GJQsqaUBKTNV-1" source="clgBbZ1NQHeZ-v6ARwOJ-8" target="clgBbZ1NQHeZ-v6ARwOJ-13">
          <mxGeometry relative="1" as="geometry" />
        </mxCell>
        <mxCell id="clgBbZ1NQHeZ-v6ARwOJ-20" style="edgeStyle=orthogonalEdgeStyle;rounded=0;orthogonalLoop=1;jettySize=auto;html=1;exitX=1;exitY=0.5;exitDx=0;exitDy=0;exitPerimeter=0;entryX=0.5;entryY=0;entryDx=0;entryDy=0;" edge="1" parent="WIyWlLk6GJQsqaUBKTNV-1" source="clgBbZ1NQHeZ-v6ARwOJ-8" target="clgBbZ1NQHeZ-v6ARwOJ-19">
          <mxGeometry relative="1" as="geometry" />
        </mxCell>
        <mxCell id="clgBbZ1NQHeZ-v6ARwOJ-8" value="Очередь переполнена" style="strokeWidth=2;html=1;shape=mxgraph.flowchart.decision;whiteSpace=wrap;" vertex="1" parent="WIyWlLk6GJQsqaUBKTNV-1">
          <mxGeometry x="200" y="390" width="110" height="70" as="geometry" />
        </mxCell>
        <mxCell id="clgBbZ1NQHeZ-v6ARwOJ-9" style="edgeStyle=orthogonalEdgeStyle;rounded=0;orthogonalLoop=1;jettySize=auto;html=1;exitX=0;exitY=0.5;exitDx=0;exitDy=0;entryX=0.5;entryY=0;entryDx=0;entryDy=0;entryPerimeter=0;" edge="1" parent="WIyWlLk6GJQsqaUBKTNV-1" source="clgBbZ1NQHeZ-v6ARwOJ-3" target="clgBbZ1NQHeZ-v6ARwOJ-8">
          <mxGeometry relative="1" as="geometry" />
        </mxCell>
        <mxCell id="clgBbZ1NQHeZ-v6ARwOJ-12" style="edgeStyle=orthogonalEdgeStyle;rounded=0;orthogonalLoop=1;jettySize=auto;html=1;exitX=0.5;exitY=1;exitDx=0;exitDy=0;entryX=0.5;entryY=0;entryDx=0;entryDy=0;" edge="1" parent="WIyWlLk6GJQsqaUBKTNV-1" source="clgBbZ1NQHeZ-v6ARwOJ-10" target="clgBbZ1NQHeZ-v6ARwOJ-3">
          <mxGeometry relative="1" as="geometry" />
        </mxCell>
        <mxCell id="clgBbZ1NQHeZ-v6ARwOJ-10" value="Студент попадает в очередь" style="rounded=0;whiteSpace=wrap;html=1;" vertex="1" parent="WIyWlLk6GJQsqaUBKTNV-1">
          <mxGeometry x="357.5" y="150" width="75" height="60" as="geometry" />
        </mxCell>
        <mxCell id="clgBbZ1NQHeZ-v6ARwOJ-16" style="edgeStyle=orthogonalEdgeStyle;rounded=0;orthogonalLoop=1;jettySize=auto;html=1;exitX=0;exitY=0.5;exitDx=0;exitDy=0;entryX=0.5;entryY=0;entryDx=0;entryDy=0;" edge="1" parent="WIyWlLk6GJQsqaUBKTNV-1" source="clgBbZ1NQHeZ-v6ARwOJ-13" target="clgBbZ1NQHeZ-v6ARwOJ-3">
          <mxGeometry relative="1" as="geometry">
            <mxPoint x="400" y="230" as="targetPoint" />
            <Array as="points">
              <mxPoint x="100" y="485" />
              <mxPoint x="100" y="230" />
              <mxPoint x="395" y="230" />
            </Array>
          </mxGeometry>
        </mxCell>
        <mxCell id="clgBbZ1NQHeZ-v6ARwOJ-13" value="Ожидание в очереди" style="rounded=0;whiteSpace=wrap;html=1;" vertex="1" parent="WIyWlLk6GJQsqaUBKTNV-1">
          <mxGeometry x="110" y="460" width="80" height="50" as="geometry" />
        </mxCell>
        <mxCell id="clgBbZ1NQHeZ-v6ARwOJ-17" value="Нет" style="text;html=1;align=center;verticalAlign=middle;resizable=0;points=[];autosize=1;strokeColor=none;fillColor=none;" vertex="1" parent="WIyWlLk6GJQsqaUBKTNV-1">
          <mxGeometry x="300" y="260" width="40" height="30" as="geometry" />
        </mxCell>
        <mxCell id="clgBbZ1NQHeZ-v6ARwOJ-18" value="Нет" style="text;html=1;align=center;verticalAlign=middle;resizable=0;points=[];autosize=1;strokeColor=none;fillColor=none;" vertex="1" parent="WIyWlLk6GJQsqaUBKTNV-1">
          <mxGeometry x="160" y="400" width="40" height="30" as="geometry" />
        </mxCell>
        <mxCell id="clgBbZ1NQHeZ-v6ARwOJ-19" value="Вытеснение" style="rounded=0;whiteSpace=wrap;html=1;" vertex="1" parent="WIyWlLk6GJQsqaUBKTNV-1">
          <mxGeometry x="310" y="460" width="80" height="50" as="geometry" />
        </mxCell>
        <mxCell id="clgBbZ1NQHeZ-v6ARwOJ-21" value="Да" style="text;html=1;align=center;verticalAlign=middle;resizable=0;points=[];autosize=1;strokeColor=none;fillColor=none;" vertex="1" parent="WIyWlLk6GJQsqaUBKTNV-1">
          <mxGeometry x="310" y="400" width="40" height="30" as="geometry" />
        </mxCell>
        <mxCell id="clgBbZ1NQHeZ-v6ARwOJ-28" style="edgeStyle=orthogonalEdgeStyle;rounded=0;orthogonalLoop=1;jettySize=auto;html=1;exitX=0;exitY=0.5;exitDx=0;exitDy=0;entryX=0.5;entryY=0;entryDx=0;entryDy=0;" edge="1" parent="WIyWlLk6GJQsqaUBKTNV-1" source="clgBbZ1NQHeZ-v6ARwOJ-23" target="clgBbZ1NQHeZ-v6ARwOJ-27">
          <mxGeometry relative="1" as="geometry" />
        </mxCell>
        <mxCell id="clgBbZ1NQHeZ-v6ARwOJ-30" style="edgeStyle=orthogonalEdgeStyle;rounded=0;orthogonalLoop=1;jettySize=auto;html=1;exitX=1;exitY=0.5;exitDx=0;exitDy=0;entryX=0.5;entryY=0;entryDx=0;entryDy=0;" edge="1" parent="WIyWlLk6GJQsqaUBKTNV-1" source="clgBbZ1NQHeZ-v6ARwOJ-23" target="clgBbZ1NQHeZ-v6ARwOJ-26">
          <mxGeometry relative="1" as="geometry" />
        </mxCell>
        <mxCell id="clgBbZ1NQHeZ-v6ARwOJ-23" value="Использование только миниЭВМ" style="rhombus;whiteSpace=wrap;html=1;" vertex="1" parent="WIyWlLk6GJQsqaUBKTNV-1">
          <mxGeometry x="470" y="382.5" width="130" height="85" as="geometry" />
        </mxCell>
        <mxCell id="clgBbZ1NQHeZ-v6ARwOJ-25" value="Да" style="text;html=1;align=center;verticalAlign=middle;resizable=0;points=[];autosize=1;strokeColor=none;fillColor=none;" vertex="1" parent="WIyWlLk6GJQsqaUBKTNV-1">
          <mxGeometry x="445" y="260" width="40" height="30" as="geometry" />
        </mxCell>
        <mxCell id="clgBbZ1NQHeZ-v6ARwOJ-37" style="edgeStyle=orthogonalEdgeStyle;rounded=0;orthogonalLoop=1;jettySize=auto;html=1;exitX=0.5;exitY=1;exitDx=0;exitDy=0;entryX=0.5;entryY=0;entryDx=0;entryDy=0;" edge="1" parent="WIyWlLk6GJQsqaUBKTNV-1" source="clgBbZ1NQHeZ-v6ARwOJ-26" target="clgBbZ1NQHeZ-v6ARwOJ-33">
          <mxGeometry relative="1" as="geometry" />
        </mxCell>
        <mxCell id="clgBbZ1NQHeZ-v6ARwOJ-26" value="Работа на миниЭВМ" style="rounded=0;whiteSpace=wrap;html=1;" vertex="1" parent="WIyWlLk6GJQsqaUBKTNV-1">
          <mxGeometry x="610" y="585" width="80" height="60" as="geometry" />
        </mxCell>
        <mxCell id="clgBbZ1NQHeZ-v6ARwOJ-32" style="edgeStyle=orthogonalEdgeStyle;rounded=0;orthogonalLoop=1;jettySize=auto;html=1;exitX=0.5;exitY=1;exitDx=0;exitDy=0;entryX=0.5;entryY=0;entryDx=0;entryDy=0;" edge="1" parent="WIyWlLk6GJQsqaUBKTNV-1" source="clgBbZ1NQHeZ-v6ARwOJ-27" target="clgBbZ1NQHeZ-v6ARwOJ-26">
          <mxGeometry relative="1" as="geometry" />
        </mxCell>
        <mxCell id="clgBbZ1NQHeZ-v6ARwOJ-27" value="Работа на УПД" style="rounded=0;whiteSpace=wrap;html=1;" vertex="1" parent="WIyWlLk6GJQsqaUBKTNV-1">
          <mxGeometry x="405" y="480" width="65" height="60" as="geometry" />
        </mxCell>
        <mxCell id="clgBbZ1NQHeZ-v6ARwOJ-29" value="Нет" style="text;html=1;align=center;verticalAlign=middle;resizable=0;points=[];autosize=1;strokeColor=none;fillColor=none;" vertex="1" parent="WIyWlLk6GJQsqaUBKTNV-1">
          <mxGeometry x="430" y="400" width="40" height="30" as="geometry" />
        </mxCell>
        <mxCell id="clgBbZ1NQHeZ-v6ARwOJ-31" value="Да" style="text;html=1;align=center;verticalAlign=middle;resizable=0;points=[];autosize=1;strokeColor=none;fillColor=none;" vertex="1" parent="WIyWlLk6GJQsqaUBKTNV-1">
          <mxGeometry x="600" y="400" width="40" height="30" as="geometry" />
        </mxCell>
        <mxCell id="clgBbZ1NQHeZ-v6ARwOJ-35" style="edgeStyle=orthogonalEdgeStyle;rounded=0;orthogonalLoop=1;jettySize=auto;html=1;exitX=0;exitY=0.5;exitDx=0;exitDy=0;entryX=0.5;entryY=0;entryDx=0;entryDy=0;" edge="1" parent="WIyWlLk6GJQsqaUBKTNV-1" source="clgBbZ1NQHeZ-v6ARwOJ-33" target="clgBbZ1NQHeZ-v6ARwOJ-34">
          <mxGeometry relative="1" as="geometry" />
        </mxCell>
        <mxCell id="clgBbZ1NQHeZ-v6ARwOJ-38" style="edgeStyle=orthogonalEdgeStyle;rounded=0;orthogonalLoop=1;jettySize=auto;html=1;exitX=1;exitY=0.5;exitDx=0;exitDy=0;entryX=0.5;entryY=0;entryDx=0;entryDy=0;" edge="1" parent="WIyWlLk6GJQsqaUBKTNV-1" source="clgBbZ1NQHeZ-v6ARwOJ-33" target="clgBbZ1NQHeZ-v6ARwOJ-10">
          <mxGeometry relative="1" as="geometry">
            <Array as="points">
              <mxPoint x="750" y="725" />
              <mxPoint x="750" y="130" />
              <mxPoint x="395" y="130" />
            </Array>
          </mxGeometry>
        </mxCell>
        <mxCell id="clgBbZ1NQHeZ-v6ARwOJ-33" value="Повторное использование" style="rhombus;whiteSpace=wrap;html=1;" vertex="1" parent="WIyWlLk6GJQsqaUBKTNV-1">
          <mxGeometry x="590" y="685" width="120" height="80" as="geometry" />
        </mxCell>
        <mxCell id="clgBbZ1NQHeZ-v6ARwOJ-34" value="Конец" style="ellipse;whiteSpace=wrap;html=1;" vertex="1" parent="WIyWlLk6GJQsqaUBKTNV-1">
          <mxGeometry x="520" y="765" width="70" height="40" as="geometry" />
        </mxCell>
        <mxCell id="clgBbZ1NQHeZ-v6ARwOJ-36" value="Нет" style="text;html=1;align=center;verticalAlign=middle;resizable=0;points=[];autosize=1;strokeColor=none;fillColor=none;" vertex="1" parent="WIyWlLk6GJQsqaUBKTNV-1">
          <mxGeometry x="550" y="695" width="40" height="30" as="geometry" />
        </mxCell>
        <mxCell id="clgBbZ1NQHeZ-v6ARwOJ-39" value="Да" style="text;html=1;align=center;verticalAlign=middle;resizable=0;points=[];autosize=1;strokeColor=none;fillColor=none;" vertex="1" parent="WIyWlLk6GJQsqaUBKTNV-1">
          <mxGeometry x="700" y="695" width="40" height="30" as="geometry" />
        </mxCell>
      </root>
    </mxGraphModel>
  </diagram>
</mxfile>
